#!OML:ASF H:\LiuWeirdWalks\Patient Classification 1\Patient 1\Session 1\male.ASF
:FULLY-SPECIFIED
:DEGREES
4716
root 0.645068 17.9058 6.72847 541.781 347.887 181.991
lowerback 4.90161 10.7309 4.33008
upperback 0.994073 14.4721 0.512567
thorax -0.735819 7.20626 -2.46474
lowerneck -20.0616 -1.64224 4.75653
upperneck 21.8486 -2.70921 -5.28341
head 10.137 -1.59174 -3.07566
rclavicle -1.53064e-013 -4.37326e-015
rhumerus -7.45369 -26.5857 -59.5021
rradius 39.6678
rwrist -21.6798
rhand -18.1058 -4.1037
rfingers 7.12502
rthumb 8.16825 -33.9258
lclavicle -1.53064e-013 -4.37326e-015
lhumerus -59.1428 20.7585 45.1193
lradius 42.3436
lwrist 11.9797
lhand -15.1949 -0.0300492
lfingers 7.12502
lthumb 10.9768 29.663
rfemur 3.34006 -17.3616 21.0755
rtibia 50.1333
rfoot -0.398202 -35.791
rtoes 8.90056
lfemur -23.2227 -1.23478 -19.8412
ltibia 33.9766
lfoot -6.81724 7.39235
ltoes -8.11109
4717
root 0.608994 17.9242 6.59159 541.804 347.986 181.91
lowerback 4.8408 10.6 4.22417
upperback 0.911652 14.2957 0.516674
thorax -0.826923 7.11608 -2.40559
lowerneck -19.8906 -1.67393 4.84006
upperneck 21.801 -2.78241 -5.26192
head 10.0827 -1.61691 -3.08665
rclavicle -1.13307e-013 -4.77083e-015
rhumerus -7.96571 -25.919 -59.8866
rradius 39.9716
rwrist -21.619
rhand -18.1852 -4.17578
rfingers 7.12502
rthumb 8.09159 -34.0009
lclavicle -1.13307e-013 -4.77083e-015
lhumerus -58.803 20.2468 46.5694
lradius 42.0176
lwrist 11.9295
lhand -15.1825 -0.0178024
lfingers 7.12502
lthumb 10.9887 29.6746
rfemur 2.47169 -17.7763 20.7461
rtibia 51.2524
rfoot -1.62805 -35.7621
rtoes 8.35788
lfemur -22.5462 -1.41762 -19.9922
ltibia 33.7437
lfoot -7.03011 7.96388
ltoes -7.99048
4718
root 0.574156 17.9408 6.45651 541.836 348.084 181.829
lowerback 4.77906 10.4577 4.10962
upperback 0.829211 14.1035 0.528044
thorax -0.921727 7.01793 -2.33428
lowerneck -19.6338 -1.68653 4.97218
upperneck 21.6634 -2.82913 -5.2798
head 9.98036 -1.63057 -3.11101
rclavicle -4.47266e-015 -4.37326e-015
rhumerus -8.52014 -25.1779 -60.2932
rradius 40.2957
rwrist -21.5766
rhand -18.3029 -4.19953
rfingers 7.12502
rthumb 7.97803 -34.029
lclavicle -4.47266e-015 -4.37326e-015
lhumerus -58.386 19.7503 48.0941
lradius 41.6478
lwrist 11.8399
lhand -15.2169 0.0242929
lfingers 7.12502
lthumb 10.9555 29.7185
rfemur 1.55411 -18.0925 20.4518
rtibia 52.3071
rfoot -2.7013 -35.4186
rtoes 7.63821
lfemur -21.887 -1.6098 -20.1397
ltibia 33.5057
lfoot -7.23881 8.52927
ltoes -7.89888
4719
root 0.540533 17.9555 6.32356 541.875 348.187 181.732
lowerback 4.7338 10.3075 3.97384
upperback 0.737405 13.9011 0.538089
thorax -1.03961 6.91432 -2.25768
lowerneck -19.4087 -1.72056 5.04229
upperneck 21.5971 -2.90058 -5.25253
head 9.90993 -1.65595 -3.11547
rclavicle -2.06736e-014 -5.96354e-015
rhumerus -9.14053 -24.3792 -60.7108
rradius 40.6311
rwrist -21.5042
rhand -18.4214 -4.18471
rfingers 7.12502
rthumb 7.86363 -34.0185
lclavicle -2.06736e-014 -5.96354e-015
lhumerus -57.9057 19.2581 49.6654
lradius 41.2394
lwrist 11.6958
lhand -15.3012 0.0890494
lfingers 7.12502
lthumb 10.8742 29.7875
rfemur 0.591275 -18.3218 20.1674
rtibia 53.3038
rfoot -3.57291 -34.7868
rtoes 6.80192
lfemur -21.2394 -1.79446 -20.304
ltibia 33.2673
lfoot -7.44027 9.07705
ltoes -7.83248
4720
root 0.507659 17.9682 6.19195 541.927 348.306 181.595
lowerback 4.6834 10.1522 3.79426
upperback 0.654409 13.6892 0.544416
thorax -1.15421 6.80659 -2.16027
lowerneck -19.2478 -1.76727 5.05782
upperneck 21.5678 -2.98069 -5.20402
head 9.86549 -1.68742 -3.10712
rclavicle -1.28713e-014 1.19271e-014
rhumerus -9.78625 -23.5568 -61.1573
rradius 40.9736
rwrist -21.4467
rhand -18.523 -4.09
rfingers 7.12502
rthumb 7.76559 -33.9274
lclavicle -1.28713e-014 1.19271e-014
lhumerus -57.3502 18.7733 51.305
lradius 40.8035
lwrist 11.5126
lhand -15.3935 0.178132
lfingers 7.12502
lthumb 10.7852 29.8812
rfemur -0.416925 -18.4688 19.8627
rtibia 54.2484
rfoot -4.30354 -33.8934
rtoes 5.88923
lfemur -20.6039 -1.95785 -20.5121
ltibia 33.0317
lfoot -7.63899 9.6062
ltoes -7.78619
